<svg role="img" viewBox="0 0 110 100" xmlns="http://www.w3.org/2000/svg"><title>Blog icon</title>
<path opacity="0.4" d="M4.65204 66.1813L12.6582 48.3277C12.8739 47.8465 13.5021 47.5625 14.1075 47.8037L33.0463 55.3512C33.6516 55.5924 33.8732 56.2151 33.6575 56.6962L25.6513 74.5499C25.4356 75.031 24.8074 75.315 24.202 75.0738L5.26323 67.5264C4.6579 67.2852 4.43629 66.6625 4.65204 66.1813Z" stroke="black" stroke-width="2"/>
<path d="M4.65204 66.1813L12.6582 48.3277C12.8739 47.8465 13.5021 47.5625 14.1075 47.8037L33.0463 55.3512C33.6516 55.5924 33.8732 56.2151 33.6575 56.6962L25.6513 74.5499C25.4356 75.031 24.8074 75.315 24.202 75.0738L5.26323 67.5264C4.6579 67.2852 4.43629 66.6625 4.65204 66.1813Z" stroke="black" stroke-width="2"/>
<path d="M34.5865 57.0665L26.5803 74.9202C26.1229 75.9402 26.6293 77.1167 27.7113 77.5479L46.6501 85.0953C47.7321 85.5265 48.9801 85.0491 49.4375 84.0291L57.4437 66.1754C57.9011 65.1554 57.3947 63.9789 56.3127 63.5477L37.3739 56.0003C36.2919 55.5691 35.0439 56.0465 34.5865 57.0665Z" fill="#FF6B6B"/>
<path opacity="0.4" d="M50.3647 84.3987L58.3708 66.545C58.5866 66.0639 59.2148 65.7799 59.8201 66.0211L78.7589 73.5685C79.3642 73.8098 79.5858 74.4324 79.3701 74.9136L71.3639 92.7672C71.1482 93.2484 70.52 93.5324 69.9147 93.2912L50.9759 85.7437C50.3705 85.5025 50.1489 84.8798 50.3647 84.3987Z" stroke="black" stroke-width="2"/>
<path d="M50.3647 84.3987L58.3708 66.545C58.5866 66.0639 59.2148 65.7799 59.8201 66.0211L78.7589 73.5685C79.3642 73.8098 79.5858 74.4324 79.3701 74.9136L71.3639 92.7672C71.1482 93.2484 70.52 93.5324 69.9147 93.2912L50.9759 85.7437C50.3705 85.5025 50.1489 84.8798 50.3647 84.3987Z" stroke="black" stroke-width="2"/>
<path d="M21.3917 26.4099L13.3856 44.2635C12.9282 45.2836 13.4345 46.46 14.5165 46.8912L33.4553 54.4387C34.5374 54.8699 35.7853 54.3925 36.2428 53.3725L44.2489 35.5188C44.7063 34.4988 44.2 33.3223 43.1179 32.8911L24.1791 25.3437C23.0971 24.9125 21.8491 25.3898 21.3917 26.4099Z" fill="#5F27CD"/>
<path d="M44.2496 35.5185L36.2435 53.3722C35.7861 54.3922 36.2924 55.5687 37.3745 55.9999L56.3133 63.5473C57.3953 63.9785 58.6433 63.5012 59.1007 62.4811L67.1068 44.6275C67.5642 43.6074 67.0579 42.431 65.9759 41.9997L47.0371 34.4523C45.955 34.0211 44.7071 34.4985 44.2496 35.5185Z" fill="#FECA57"/>
<path d="M67.106 44.6275L59.0999 62.4811C58.6425 63.5012 59.1488 64.6776 60.2309 65.1088L79.1697 72.6562C80.2517 73.0874 81.4997 72.6101 81.9571 71.5901L89.9632 53.7364C90.4206 52.7164 89.9143 51.5399 88.8322 51.1087L69.8935 43.5613C68.8114 43.1301 67.5634 43.6074 67.106 44.6275Z" fill="#FF9F43"/>
<path opacity="0.4" d="M23.977 23.0859L31.9831 5.23228C32.1989 4.75115 32.8271 4.46714 33.4324 4.70837L52.3712 12.2558C52.9765 12.497 53.1982 13.1197 52.9824 13.6008L44.9763 31.4545C44.7605 31.9356 44.1323 32.2196 43.527 31.9784L24.5882 24.431C23.9829 24.1898 23.7612 23.5671 23.977 23.0859Z" stroke="black" stroke-width="2"/>
<path d="M23.977 23.0859L31.9831 5.23228C32.1989 4.75115 32.8271 4.46714 33.4324 4.70837L52.3712 12.2558C52.9765 12.497 53.1982 13.1197 52.9824 13.6008L44.9763 31.4545C44.7605 31.9356 44.1323 32.2196 43.527 31.9784L24.5882 24.431C23.9829 24.1898 23.7612 23.5671 23.977 23.0859Z" stroke="black" stroke-width="2"/>
<path d="M53.9123 13.9708L45.9062 31.8244C45.4488 32.8445 45.9551 34.021 47.0371 34.4522L65.9759 41.9996C67.058 42.4308 68.3059 41.9534 68.7634 40.9334L76.7695 23.0797C77.2269 22.0597 76.7206 20.8832 75.6385 20.452L56.6997 12.9046C55.6177 12.4734 54.3697 12.9508 53.9123 13.9708Z" fill="#FF6B6B"/>
<path opacity="0.4" d="M69.6913 41.3038L77.6974 23.4502C77.9132 22.969 78.5414 22.685 79.1467 22.9263L98.0855 30.4737C98.6908 30.7149 98.9124 31.3376 98.6967 31.8187L90.6906 49.6724C90.4748 50.1535 89.8466 50.4375 89.2413 50.1963L70.3025 42.6489C69.6971 42.4077 69.4755 41.785 69.6913 41.3038Z" stroke="black" stroke-width="2"/>
<path d="M69.6913 41.3038L77.6974 23.4502C77.9132 22.969 78.5414 22.685 79.1467 22.9263L98.0855 30.4737C98.6908 30.7149 98.9124 31.3376 98.6967 31.8187L90.6906 49.6724C90.4748 50.1535 89.8466 50.4375 89.2413 50.1963L70.3025 42.6489C69.6971 42.4077 69.4755 41.785 69.6913 41.3038Z" stroke="black" stroke-width="2"/>
<path d="M21.6977 22.7155L3.26092 31.2969C1.73777 32.0058 1.06085 33.7785 1.85271 35.2904L10.9556 52.6708C11.7475 54.1827 13.652 54.7538 15.1751 54.0449L33.6119 45.4635C35.135 44.7546 35.8119 42.9819 35.0201 41.47L25.9172 24.0896C25.1253 22.5777 23.2208 22.0066 21.6977 22.7155Z" fill="white" stroke="black" stroke-width="2"/>
<path d="M32.6846 43.6923L14.2479 52.2737C12.7247 52.9826 12.0478 54.7553 12.8396 56.2672L21.9426 73.6476C22.7344 75.1595 24.6389 75.7306 26.1621 75.0217L44.5988 66.4403C46.1219 65.7314 46.7989 63.9587 46.007 62.4468L36.9041 45.0664C36.1122 43.5545 34.2077 42.9834 32.6846 43.6923Z" fill="white" stroke="black" stroke-width="2"/>
<path d="M43.6705 64.6687L25.2338 73.2501C23.7106 73.959 23.0337 75.7317 23.8255 77.2436L32.9285 94.624C33.7203 96.1359 35.6248 96.7071 37.148 95.9981L55.5847 87.4168C57.1079 86.7078 57.7848 84.9351 56.9929 83.4232L47.89 66.0429C47.0982 64.531 45.1936 63.9598 43.6705 64.6687Z" fill="white" stroke="black" stroke-width="2"/>
<path d="M43.949 12.3585L25.5123 20.9399C23.9891 21.6488 23.3122 23.4215 24.104 24.9334L33.207 42.3138C33.9988 43.8257 35.9033 44.3968 37.4265 43.6879L55.8632 35.1065C57.3864 34.3976 58.0633 32.6249 57.2714 31.113L48.1685 13.7326C47.3766 12.2207 45.4721 11.6496 43.949 12.3585Z" fill="white" stroke="black" stroke-width="2"/>
<path d="M54.9349 33.3353L36.4982 41.9167C34.975 42.6256 34.2981 44.3983 35.0899 45.9102L44.1929 63.2906C44.9847 64.8025 46.8892 65.3736 48.4124 64.6647L66.8491 56.0834C68.3723 55.3744 69.0492 53.6017 68.2573 52.0898L59.1544 34.7094C58.3626 33.1975 56.458 32.6264 54.9349 33.3353Z" fill="white" stroke="black" stroke-width="2"/>
<path d="M65.9218 54.3121L47.4851 62.8934C45.962 63.6024 45.285 65.375 46.0769 66.8869L55.1798 84.2673C55.9717 85.7792 57.8762 86.3504 59.3993 85.6414L77.8361 77.0601C79.3592 76.3511 80.0361 74.5784 79.2443 73.0665L70.1413 55.6862C69.3495 54.1743 67.445 53.6031 65.9218 54.3121Z" fill="white" stroke="black" stroke-width="2"/>
<path d="M66.2009 2.00188L47.7642 10.5832C46.241 11.2922 45.5641 13.0649 46.3559 14.5768L55.4589 31.9571C56.2507 33.469 58.1552 34.0402 59.6784 33.3313L78.1151 24.7499C79.6383 24.041 80.3152 22.2683 79.5233 20.7564L70.4204 3.376C69.6285 1.8641 67.724 1.29293 66.2009 2.00188Z" fill="white" stroke="black" stroke-width="2"/>
<path d="M77.1862 22.9783L58.7495 31.5597C57.2264 32.2686 56.5494 34.0413 57.3413 35.5532L66.4442 52.9336C67.2361 54.4455 69.1406 55.0166 70.6637 54.3077L89.1005 45.7264C90.6236 45.0174 91.3005 43.2447 90.5087 41.7328L81.4058 24.3524C80.6139 22.8405 78.7094 22.2694 77.1862 22.9783Z" fill="white" stroke="black" stroke-width="2"/>
<path d="M88.1732 43.9543L69.7364 52.5357C68.2133 53.2446 67.5364 55.0173 68.3282 56.5292L77.4311 73.9096C78.223 75.4215 80.1275 75.9927 81.6506 75.2837L100.087 66.7024C101.611 65.9934 102.287 64.2207 101.496 62.7088L92.3927 45.3285C91.6008 43.8166 89.6963 43.2454 88.1732 43.9543Z" fill="white" stroke="black" stroke-width="2"/>
</svg>
